<svg width="23" height="22" viewBox="0 0 23 22" fill="none" xmlns="http://www.w3.org/2000/svg">
<path d="M1.05005 1.04999H3.05005L5.71005 13.47C5.80763 13.9248 6.06072 14.3315 6.42576 14.6198C6.7908 14.9082 7.24495 15.0603 7.71005 15.05H17.49C17.9452 15.0493 18.3865 14.8933 18.7411 14.6078C19.0956 14.3224 19.3422 13.9245 19.4401 13.48L21.09 6.04999H4.12005M8.00005 20C8.00005 20.5523 7.55233 21 7.00005 21C6.44776 21 6.00005 20.5523 6.00005 20C6.00005 19.4477 6.44776 19 7.00005 19C7.55233 19 8.00005 19.4477 8.00005 20ZM19 20C19 20.5523 18.5523 21 18 21C17.4478 21 17 20.5523 17 20C17 19.4477 17.4478 19 18 19C18.5523 19 19 19.4477 19 20Z" stroke="#FAFAFA" stroke-width="2" stroke-linecap="round" stroke-linejoin="round"/>
</svg>
